<?xml version="1.0" encoding="UTF-8"?>
<svg xmlns="http://www.w3.org/2000/svg" version="1.1" viewBox="0 0 603.7 64">
    <style>
        .laravel { fill: #1B1B18 } @media (prefers-color-scheme:dark) { .laravel { fill: #fff } }
        .essentials { fill: #868682 } @media (prefers-color-scheme:dark) { .pint { fill: #A1A09A } }
    </style>
    <rect fill="#F58D32" y="0" width="64" height="64"/>
    <path class="laravel" d="M103.7,7.6h-7.7v47.9h22v-7.1h-14.4V7.6Z"/>
    <path class="laravel"
          d="M145.1,28c-1-1.6-2.4-2.9-4.2-3.8-1.8-.9-3.6-1.4-5.4-1.4s-4.5.4-6.5,1.3c-2,.9-3.6,2.1-5,3.7-1.4,1.6-2.5,3.3-3.3,5.4-.8,2-1.2,4.2-1.2,6.4s.4,4.4,1.2,6.4c.8,2,1.9,3.8,3.3,5.3,1.4,1.6,3.1,2.8,5,3.7,2,.9,4.1,1.3,6.5,1.3s3.6-.5,5.4-1.4c1.8-.9,3.2-2.2,4.2-3.8v4.3h7.3v-31.9h-7.3v4.3ZM144.4,43.5c-.4,1.2-1.1,2.3-1.9,3.2-.8.9-1.8,1.6-2.9,2.2-1.1.5-2.4.8-3.8.8s-2.6-.3-3.7-.8c-1.1-.5-2.1-1.3-2.9-2.2-.8-.9-1.4-2-1.8-3.2-.4-1.2-.6-2.5-.6-3.9s.2-2.7.6-3.9c.4-1.2,1-2.3,1.8-3.2.8-.9,1.8-1.6,2.9-2.2,1.1-.5,2.4-.8,3.7-.8s2.6.3,3.8.8c1.1.5,2.1,1.3,2.9,2.2.8.9,1.4,2,1.9,3.2.4,1.2.7,2.5.7,3.9s-.2,2.7-.7,3.9Z"/>
    <path class="laravel"
          d="M204.1,28c-1-1.6-2.4-2.9-4.2-3.8-1.8-.9-3.6-1.4-5.4-1.4s-4.5.4-6.5,1.3c-2,.9-3.6,2.1-5,3.7-1.4,1.6-2.5,3.3-3.3,5.4-.8,2-1.2,4.2-1.2,6.4s.4,4.4,1.2,6.4c.8,2,1.9,3.8,3.3,5.3,1.4,1.6,3.1,2.8,5,3.7,2,.9,4.1,1.3,6.5,1.3s3.6-.5,5.4-1.4c1.8-.9,3.2-2.2,4.2-3.8v4.3h7.3v-31.9h-7.3v4.3ZM203.4,43.5c-.4,1.2-1.1,2.3-1.9,3.2-.8.9-1.8,1.6-2.9,2.2-1.1.5-2.4.8-3.8.8s-2.6-.3-3.7-.8c-1.1-.5-2.1-1.3-2.9-2.2-.8-.9-1.4-2-1.8-3.2-.4-1.2-.6-2.5-.6-3.9s.2-2.7.6-3.9c.4-1.2,1-2.3,1.8-3.2.8-.9,1.8-1.6,2.9-2.2,1.1-.5,2.4-.8,3.7-.8s2.6.3,3.8.8c1.1.5,2.1,1.3,2.9,2.2.8.9,1.4,2,1.9,3.2.4,1.2.7,2.5.7,3.9s-.2,2.7-.7,3.9Z"/>
    <path class="laravel" d="M291,7.6h-7.3v47.9h7.3V7.6Z"/>
    <path class="laravel" d="M158.1,55.6h7.3v-24.6h12.5v-7.3h-19.7v31.9Z"/>
    <path class="laravel" d="M240.5,23.6l-9.1,24.4-9.1-24.4h-7.4l11.9,31.9h9.1l11.9-31.9h-7.4Z"/>
    <path class="laravel"
          d="M263.7,22.8c-8.9,0-15.9,7.5-15.9,16.8s6.8,16.8,16.9,16.8,9.2-2.2,13.6-7l-4.9-3.9s-3.7,5-9.2,5-9.1-5.3-9.1-8.1h24.1c1.3-10.5-5.5-19.5-15.4-19.5ZM254.9,36.8c0-.6.9-8.1,8.6-8.1s8.7,7.5,8.8,8.1h-17.4Z"/>
    <path fill="#FDFDFC"
          d="M36.3,8.3h-1.4v7.8h4.3c.8,0,1.4.6,1.4,1.4s-.6,1.4-1.4,1.4h-4.3v7.8h5.7c0,2.4,1.9,4.3,4.3,4.3s4.3-1.9,4.3-4.3h5.7V8.3h-18.5ZM37.7,13.3v-2.1h14.2v12.8h-5.7v2.8c0,.8-.6,1.4-1.4,1.4s-1.4-.6-1.4-1.4v-2.8h-5.7v-2.1h1.4c2.4,0,4.3-1.9,4.3-4.3s-1.9-4.3-4.3-4.3h-1.4ZM10.6,14h-1.4v39.9h39.9v-21.4h-10v4.3c0,.8-.6,1.4-1.4,1.4s-1.4-.6-1.4-1.4v-4.3h-5.7V14H10.6ZM27.7,16.9v15.7h-2.8v-1.4c0-2.4-1.9-4.3-4.3-4.3s-4.3,1.9-4.3,4.3v1.4h-4.3v-15.7h15.7ZM17.8,35.4h1.4v-4.3c0-.8.6-1.4,1.4-1.4s1.4.6,1.4,1.4v4.3h5.7v2.8h-1.4c-2.4,0-4.3,1.9-4.3,4.3s1.9,4.3,4.3,4.3h1.4v4.3h-15.7v-15.7h5.7ZM30.6,45.4v-1.4h-4.3c-.8,0-1.4-.6-1.4-1.4s.6-1.4,1.4-1.4h4.3v-5.7h2.8v1.4c0,2.4,1.9,4.3,4.3,4.3s4.3-1.9,4.3-4.3v-1.4h4.3v15.7h-15.7v-5.7Z"/>
    <g class="essentials">
        <path d="M304.1,55.9V7.8h5.5v48.2h-5.5ZM306.9,12.6v-4.8h28.9v4.8h-28.9ZM306.9,33.2v-4.8h27v4.8h-27ZM306.9,55.9v-4.8h29.4v4.8h-29.4Z"/>
        <path d="M355.8,56.6c-4.2,0-7.5-1-10-2.9-2.5-1.9-3.9-4.7-4.3-8.3h5.2c.3,2.2,1.3,3.9,2.9,5,1.6,1.2,3.7,1.7,6.4,1.7s4.2-.4,5.6-1.3c1.3-.9,2-2.2,2-3.8s-.4-2.2-1.1-3c-.8-.9-2.3-1.6-4.5-2.2l-5.5-1.4c-3.1-.8-5.5-2-7-3.7-1.6-1.7-2.3-3.7-2.3-6s1.1-5.3,3.3-7c2.2-1.7,5.2-2.6,8.9-2.6s6.7.9,9,2.7c2.3,1.8,3.6,4.3,3.9,7.4h-5.2c-.3-1.8-1.2-3.2-2.5-4.2-1.4-1-3.2-1.5-5.5-1.5s-3.9.4-5.1,1.2c-1.2.8-1.8,2-1.8,3.5s.4,2.2,1.3,3c.9.8,2.3,1.6,4.4,2.1l5.4,1.5c3.2.8,5.6,2.1,7.2,3.9s2.4,3.8,2.4,6.3-1.1,5.3-3.4,7c-2.3,1.7-5.4,2.5-9.4,2.5Z"/>
        <path d="M388.1,56.6c-4.2,0-7.5-1-10-2.9-2.5-1.9-3.9-4.7-4.3-8.3h5.2c.3,2.2,1.3,3.9,2.9,5,1.6,1.2,3.7,1.7,6.4,1.7s4.2-.4,5.6-1.3c1.3-.9,2-2.2,2-3.8s-.4-2.2-1.1-3c-.8-.9-2.3-1.6-4.5-2.2l-5.5-1.4c-3.1-.8-5.5-2-7-3.7-1.6-1.7-2.3-3.7-2.3-6s1.1-5.3,3.3-7c2.2-1.7,5.2-2.6,8.9-2.6s6.7.9,9,2.7c2.3,1.8,3.6,4.3,3.9,7.4h-5.2c-.3-1.8-1.2-3.2-2.5-4.2-1.4-1-3.2-1.5-5.5-1.5s-3.9.4-5.1,1.2c-1.2.8-1.8,2-1.8,3.5s.4,2.2,1.3,3c.9.8,2.3,1.6,4.4,2.1l5.4,1.5c3.2.8,5.6,2.1,7.2,3.9s2.4,3.8,2.4,6.3-1.1,5.3-3.4,7c-2.3,1.7-5.4,2.5-9.4,2.5Z"/>
        <path d="M423.3,56.6c-3.3,0-6.1-.8-8.6-2.3-2.5-1.5-4.5-3.6-5.9-6.3-1.4-2.7-2.1-5.8-2.1-9.2s.7-6.5,2.1-9.2c1.4-2.7,3.4-4.7,5.9-6.2s5.5-2.2,8.8-2.2,5.9.7,8.3,2.1c2.3,1.4,4.1,3.3,5.4,5.8,1.3,2.5,1.9,5.4,1.9,8.8s0,.9,0,1.3c0,.4,0,.8-.2,1.3h-28.2v-4.5h24.9l-1.7,2.5c0-4.1-.9-7.3-2.7-9.5-1.8-2.2-4.4-3.3-7.7-3.3s-6.1,1.2-8.2,3.5c-2.1,2.3-3.1,5.5-3.1,9.5s1,7.3,3.1,9.7c2.1,2.4,4.9,3.6,8.3,3.6s4.1-.5,5.8-1.4c1.6-1,2.9-2.3,3.6-4.1h5.1c-1.1,3.1-3,5.6-5.6,7.4-2.6,1.8-5.7,2.7-9.1,2.7Z"/>
        <path d="M447.1,55.9V21.8h5v8h.3v26.1h-5.4ZM471.5,55.9v-22.3c0-2.6-.6-4.5-1.9-5.8-1.3-1.3-3.2-1.9-5.8-1.9s-4.2.5-5.9,1.5c-1.7,1-3.1,2.3-4,4.1-1,1.7-1.4,3.8-1.4,6.1l-.9-8.1c1.2-2.5,2.9-4.5,5.3-6s5.1-2.2,8.1-2.2,6.4,1,8.6,3c2.2,2,3.2,4.7,3.2,8v23.7h-5.4Z"/>
        <path d="M482,26.4v-4.5h22.5v4.5h-22.5ZM499.9,56.5c-3.8,0-6.5-.9-8.3-2.6-1.7-1.7-2.6-4.2-2.6-7.5V13.8l5.4-2v34.6c0,1.9.5,3.3,1.5,4.2,1,.9,2.6,1.3,4.8,1.3s1.7,0,2.3-.2c.6-.1,1.2-.3,1.6-.4v4.5c-.4.2-1.1.3-1.9.4-.8.1-1.8.2-2.8.2Z"/>
        <path d="M511,14.1v-6.3h6.2v6.3h-6.2ZM511.4,55.9V21.8h5.4v34.1h-5.4Z"/>
        <path d="M536.5,56.6c-3.5,0-6.3-.9-8.4-2.6-2.1-1.7-3.1-4.1-3.1-7.1s1-5.3,3.1-7c2.1-1.6,5-2.8,9-3.5l11.9-2v4.4l-11.1,1.7c-2.5.4-4.4,1.1-5.7,2-1.3.9-1.9,2.3-1.9,4.1s.6,3.1,1.8,3.9c1.2.9,2.9,1.3,5.3,1.3s5.4-.7,7.3-2,2.8-3.1,2.8-5.3l.9,4.7c-.7,2.3-2.1,4-4.2,5.3-2.1,1.2-4.6,1.9-7.6,1.9ZM548.2,55.9c-.2-.8-.3-1.6-.4-2.6,0-1-.1-2.2-.1-3.7h-.3v-16.3c0-2.6-.6-4.5-1.8-5.7-1.2-1.2-3.1-1.8-5.7-1.8s-4.6.5-6.2,1.6c-1.5,1-2.4,2.5-2.6,4.4h-5.2c.2-3.3,1.6-5.9,4.1-7.8s5.9-2.8,10-2.8,7.4,1,9.4,3c2.1,2,3.1,5,3.1,9v16.4c0,1,0,2,.2,3,.1,1,.3,2.2.5,3.3h-5.2Z"/>
        <path d="M562.9,55.9V7.8h5.4v48.2h-5.4Z"/>
        <path d="M590.6,56.6c-4.2,0-7.5-1-10-2.9-2.5-1.9-3.9-4.7-4.3-8.3h5.2c.3,2.2,1.3,3.9,2.9,5,1.6,1.2,3.7,1.7,6.4,1.7s4.2-.4,5.6-1.3c1.3-.9,2-2.2,2-3.8s-.4-2.2-1.1-3c-.8-.9-2.3-1.6-4.5-2.2l-5.5-1.4c-3.1-.8-5.5-2-7-3.7-1.6-1.7-2.3-3.7-2.3-6s1.1-5.3,3.3-7c2.2-1.7,5.2-2.6,8.9-2.6s6.7.9,9,2.7c2.3,1.8,3.6,4.3,3.9,7.4h-5.2c-.3-1.8-1.2-3.2-2.5-4.2-1.4-1-3.2-1.5-5.5-1.5s-3.9.4-5.1,1.2c-1.2.8-1.8,2-1.8,3.5s.4,2.2,1.3,3c.9.8,2.3,1.6,4.4,2.1l5.4,1.5c3.2.8,5.6,2.1,7.2,3.9s2.4,3.8,2.4,6.3-1.1,5.3-3.4,7c-2.3,1.7-5.4,2.5-9.4,2.5Z"/>
    </g>
</svg>