<?xml version="1.0" encoding="UTF-8"?>
<svg xmlns="http://www.w3.org/2000/svg" version="1.1" viewBox="0 0 407 64">
      <style>
            .essentials { fill: #1B1B18 } @media (prefers-color-scheme:dark) { .laravel { fill: #fff } }
      </style>

      <rect fill="#F58D32" y="0" width="64" height="64"/>
      <path fill="#FDFDFC" d="M36.3,8.3h-1.4v7.8h4.3c.8,0,1.4.6,1.4,1.4s-.6,1.4-1.4,1.4h-4.3v7.8h5.7c0,2.4,1.9,4.3,4.3,4.3s4.3-1.9,4.3-4.3h5.7V8.3h-18.5ZM37.7,13.3v-2.1h14.2v12.8h-5.7v2.8c0,.8-.6,1.4-1.4,1.4s-1.4-.6-1.4-1.4v-2.8h-5.7v-2.1h1.4c2.4,0,4.3-1.9,4.3-4.3s-1.9-4.3-4.3-4.3h-1.4ZM10.6,14h-1.4v39.9h39.9v-21.4h-10v4.3c0,.8-.6,1.4-1.4,1.4s-1.4-.6-1.4-1.4v-4.3h-5.7V14H10.6ZM27.7,16.9v15.7h-2.8v-1.4c0-2.4-1.9-4.3-4.3-4.3s-4.3,1.9-4.3,4.3v1.4h-4.3v-15.7h15.7ZM17.8,35.4h1.4v-4.3c0-.8.6-1.4,1.4-1.4s1.4.6,1.4,1.4v4.3h5.7v2.8h-1.4c-2.4,0-4.3,1.9-4.3,4.3s1.9,4.3,4.3,4.3h1.4v4.3h-15.7v-15.7h5.7ZM30.6,45.4v-1.4h-4.3c-.8,0-1.4-.6-1.4-1.4s.6-1.4,1.4-1.4h4.3v-5.7h2.8v1.4c0,2.4,1.9,4.3,4.3,4.3s4.3-1.9,4.3-4.3v-1.4h4.3v15.7h-15.7v-5.7Z"/>

      <path class="essentials" d="M96.1,55.9V7.8h7.1v48.2h-7.1ZM99.6,13.6v-5.8h29.4v5.8h-29.4ZM99.6,33.9v-5.8h27.6v5.8h-27.6ZM99.6,55.9v-5.8h30v5.8h-30Z"/>
      <path class="essentials" d="M149,56.6c-4.5,0-8-1-10.6-2.9-2.6-2-4.1-4.7-4.5-8.3h6.4c.3,2,1.2,3.5,2.7,4.5,1.5,1,3.5,1.6,6.1,1.6s4-.4,5.2-1.2,1.8-1.9,1.8-3.4-.3-2-1-2.7c-.7-.7-2-1.3-4-1.8l-5.5-1.3c-3.4-.8-6-2.1-7.7-3.8-1.7-1.7-2.5-3.7-2.5-6.2s1.1-5.5,3.4-7.3c2.3-1.8,5.5-2.6,9.5-2.6s7.2.9,9.6,2.7c2.4,1.8,3.8,4.3,4.1,7.5h-6.4c-.3-1.6-1-2.8-2.3-3.7-1.3-.9-3-1.3-5.2-1.3s-3.6.4-4.7,1.1c-1.1.7-1.6,1.8-1.6,3s.4,2,1.2,2.7c.8.7,2.2,1.3,4.1,1.8l5.6,1.4c3.3.8,5.7,2.1,7.4,3.9,1.6,1.8,2.5,4,2.5,6.5s-1.2,5.5-3.6,7.2-5.7,2.6-10,2.6Z"/>
      <path class="essentials" d="M181.9,56.6c-4.5,0-8-1-10.6-2.9-2.6-2-4.1-4.7-4.5-8.3h6.4c.3,2,1.2,3.5,2.7,4.5,1.5,1,3.5,1.6,6.1,1.6s4-.4,5.2-1.2,1.8-1.9,1.8-3.4-.3-2-1-2.7c-.7-.7-2-1.3-4-1.8l-5.5-1.3c-3.4-.8-6-2.1-7.7-3.8-1.7-1.7-2.5-3.7-2.5-6.2s1.1-5.5,3.4-7.3c2.3-1.8,5.5-2.6,9.5-2.6s7.2.9,9.6,2.7c2.4,1.8,3.8,4.3,4.1,7.5h-6.4c-.3-1.6-1-2.8-2.3-3.7-1.3-.9-3-1.3-5.2-1.3s-3.6.4-4.7,1.1c-1.1.7-1.6,1.8-1.6,3s.4,2,1.2,2.7c.8.7,2.2,1.3,4.1,1.8l5.6,1.4c3.3.8,5.7,2.1,7.4,3.9,1.6,1.8,2.5,4,2.5,6.5s-1.2,5.5-3.6,7.2-5.7,2.6-10,2.6Z"/>
      <path class="essentials" d="M217.8,56.6c-3.4,0-6.5-.8-9.1-2.3-2.6-1.5-4.6-3.6-6.1-6.3-1.5-2.7-2.2-5.8-2.2-9.2s.7-6.6,2.2-9.3c1.4-2.7,3.5-4.7,6.1-6.2,2.6-1.5,5.6-2.2,9-2.2s6.2.7,8.6,2.1,4.3,3.4,5.6,5.9c1.3,2.5,2,5.5,2,8.9s0,1,0,1.5c0,.5,0,.9-.2,1.4h-28.6v-5.2h23.7l-1.7,2.1c0-3.7-.8-6.4-2.5-8.4-1.7-1.9-3.9-2.9-6.9-2.9s-5.7,1.1-7.5,3.2c-1.9,2.2-2.8,5.2-2.8,9s.9,6.9,2.8,9.1c1.8,2.2,4.4,3.3,7.7,3.3s3.7-.4,5.2-1.2c1.5-.8,2.6-2,3.3-3.6h6.6c-1.1,3.2-3,5.7-5.7,7.6-2.7,1.8-5.8,2.7-9.5,2.7Z"/>
      <path class="essentials" d="M241,55.9V21.8h6.6v8h.3v26.1h-7ZM265.2,55.9v-21.9c0-2.4-.6-4.1-1.8-5.3-1.2-1.2-2.9-1.7-5.3-1.7s-3.8.4-5.3,1.3c-1.5.9-2.7,2.1-3.6,3.7-.9,1.6-1.3,3.4-1.3,5.6l-.9-8.2c1.1-2.5,2.8-4.5,5.2-6,2.3-1.5,5-2.2,8.1-2.2s6.5,1,8.6,3.1c2.1,2.1,3.1,4.8,3.1,8.2v23.5h-6.9Z"/>
      <path class="essentials" d="M276.6,27.4v-5.6h23.4v5.6h-23.4ZM294.9,56.6c-4,0-6.9-.9-8.7-2.8-1.9-1.8-2.8-4.6-2.8-8.2V14l6.9-2.6v34.3c0,1.8.5,3.1,1.4,3.9.9.8,2.5,1.3,4.5,1.3s1.5,0,2.1-.2c.6-.1,1.2-.3,1.6-.5v5.6c-.5.2-1.2.4-2.1.5-.9.1-1.9.2-3,.2Z"/>
      <path class="essentials" d="M306.2,15.1v-7.8h7.7v7.8h-7.7ZM306.5,55.9V21.8h7v34.1h-7Z"/>
      <path class="essentials" d="M335.9,56.6c-3.1,0-5.8-.7-8.1-2.2s-4.1-3.5-5.4-6.2c-1.3-2.6-1.9-5.7-1.9-9.2s.6-6.7,1.9-9.4c1.3-2.7,3.1-4.7,5.4-6.2,2.3-1.5,5-2.2,8.2-2.2s5.9.8,8.1,2.3,3.5,3.7,4.2,6.5h-.7c0,.1,0-8.2,0-8.2h6.6v34.1h-6.6v-7.8l.7.2c-.7,2.5-2.2,4.6-4.4,6.1-2.2,1.5-4.9,2.2-8,2.2ZM337.6,50.8c3.1,0,5.6-1.1,7.3-3.2s2.6-5.1,2.6-8.8-.9-6.5-2.7-8.7c-1.8-2.1-4.2-3.2-7.4-3.2s-5.5,1.1-7.2,3.2c-1.7,2.1-2.6,5.1-2.6,8.9s.9,6.6,2.6,8.7c1.8,2.1,4.2,3.1,7.3,3.1Z"/>
      <path class="essentials" d="M364,55.9V7.8h7v48.2h-7Z"/>
      <path class="essentials" d="M393,56.6c-4.5,0-8-1-10.6-2.9-2.6-2-4.1-4.7-4.5-8.3h6.4c.3,2,1.2,3.5,2.7,4.5,1.5,1,3.5,1.6,6.1,1.6s4-.4,5.2-1.2,1.8-1.9,1.8-3.4-.3-2-1-2.7c-.7-.7-2-1.3-4-1.8l-5.5-1.3c-3.4-.8-6-2.1-7.7-3.8-1.7-1.7-2.5-3.7-2.5-6.2s1.1-5.5,3.4-7.3c2.3-1.8,5.5-2.6,9.5-2.6s7.2.9,9.6,2.7c2.4,1.8,3.8,4.3,4.1,7.5h-6.4c-.3-1.6-1-2.8-2.3-3.7-1.3-.9-3-1.3-5.2-1.3s-3.6.4-4.7,1.1c-1.1.7-1.6,1.8-1.6,3s.4,2,1.2,2.7c.8.7,2.2,1.3,4.1,1.8l5.6,1.4c3.3.8,5.7,2.1,7.4,3.9,1.6,1.8,2.5,4,2.5,6.5s-1.2,5.5-3.6,7.2-5.7,2.6-10,2.6Z"/>
</svg>